<?xml version="1.0" encoding="UTF-8" standalone="no"?>
<!-- Created with Inkscape (http://www.inkscape.org/) -->

<svg
   width="512"
   height="512"
   viewBox="0 0 512 512"
   version="1.1"
   id="svg1"
   xml:space="preserve"
   xmlns="http://www.w3.org/2000/svg"
   xmlns:svg="http://www.w3.org/2000/svg"><defs
     id="defs1" /><g
     id="layer1"
     style="display:inline;opacity:1"
     transform="matrix(1.0959844,0,0,1.0850466,17.439894,-18.778786)"><path
       style="display:inline;opacity:1;fill:#ffffff;fill-opacity:1"
       d="M 179.10535,161.97317 C 248.10859,147.59248 252.86622,55.163152 186.25098,23.150597 140.4262,1.12908 94.984275,11.599964 53.399431,53.762709 36.37606,71.022652 35.858297,67.310009 58.361928,89.346477 76.930795,107.52986 76.930795,107.52986 91.382685,93.321623 120.52524,64.670395 142.3518,59.52674 166.9835,75.505507 c 30.11248,19.534186 25.6272,71.732953 -7.31856,85.171853 -9.94817,4.05796 2.27676,4.87282 19.44041,1.29581 z"
       id="path5" /><path
       style="display:inline;opacity:1;fill:#ffffff;fill-opacity:1"
       d="m 159.40797,218.08921 c 41.49681,-8.72912 74.8973,-42.2354 80.91011,-81.16637 1.96401,-12.7163 1.09994,-15.11773 -2.63005,-7.30946 -15.5533,32.55896 -59.2376,52.55761 -94.96806,43.47633 C 121.93037,167.80581 99.001275,149.03164 46.273018,94.119686 -16.360502,28.892253 -35.34367,16.013078 -71.70694,14.075903 c -57.14121,-3.044074 -105.3519,35.878643 -109.66484,88.537477 -0.72672,8.87298 -0.63991,8.8384 4.72613,-1.88262 15.7897,-31.546842 58.02502,-49.802832 93.995448,-40.629017 21.293807,5.430724 32.205569,14.745292 109.98208,93.883607 58.747158,59.77578 87.140092,73.55644 132.076092,64.10386 z"
       id="path4" /><path
       style="display:inline;opacity:1;fill:#ffffff;fill-opacity:1"
       d="m -123.34609,70.026559 c -69.00324,14.38068 -73.76087,106.810011 -7.14563,138.822571 45.824782,22.02151 91.266703,11.55063 132.8515426,-30.61211 17.0233694,-17.25995 17.5411394,-13.5473 -4.9624901,-35.58377 -18.5688705,-18.18339 -18.5688705,-18.18339 -33.0207595,-3.97515 -29.142551,28.65123 -50.969111,33.79488 -75.600813,17.81612 -30.11248,-19.53419 -25.6272,-71.732961 7.31856,-85.171851 9.948172,-4.05796 -2.27676,-4.87282 -19.44041,-1.29581 z"
       id="path6" /></g></svg>
